#N canvas 615 22 450 300 10;
#X obj 86 49 adc~;
#X obj 400 39 print;
#N canvas 74 66 1680 895 mainOSC 1;
#X obj 391 -53 import mrpeach;
#X obj 390 -9 udpreceive 9012;
#X obj 390 21 unpackOSC;
#X obj 276 234 udpsend;
#X obj 236 -108 loadbang;
#X text 96 -99 OSC;
#X msg 302 50 disconnect;
#X obj 390 139 outlet;
#X obj 287 292 tgl 15 0 empty empty empty 17 7 0 10 -262144 -1 -1 1
1;
#X obj 676 -48 inlet;
#X obj 685 80 packOSC;
#X obj 462 313 tgl 15 0 empty empty empty 17 7 0 10 -262144 -1 -1 0
1;
#X obj 358 368 select 0;
#X obj 490 322 metro 1000;
#X msg 673 -7 send /level \$1;
#X msg 231 -23 connect 127.0.0.1 2000;
#X floatatom 964 59 5 0 0 0 - - -, f 5;
#X msg 965 162 send /color \$1;
#X obj 965 241 packOSC;
#X msg 1030 -17 0;
#X msg 1113 -17 0.25;
#X msg 1164 -15 0.5, f 5;
#X msg 1322 -4 1;
#X connect 1 0 2 0;
#X connect 2 0 7 0;
#X connect 3 0 8 0;
#X connect 4 0 0 0;
#X connect 4 0 15 0;
#X connect 6 0 3 0;
#X connect 8 0 12 0;
#X connect 9 0 14 0;
#X connect 10 0 3 0;
#X connect 11 0 13 0;
#X connect 12 0 11 0;
#X connect 13 0 15 0;
#X connect 14 0 10 0;
#X connect 15 0 3 0;
#X connect 16 0 17 0;
#X connect 17 0 18 0;
#X connect 18 0 3 0;
#X connect 19 0 16 0;
#X connect 20 0 16 0;
#X connect 21 0 16 0;
#X connect 22 0 16 0;
#X restore 322 176 pd mainOSC;
#X obj 20 193 dbtorms;
#X obj 88 262 s \$0-b-left;
#X obj 180 73 env~ 8192 4096;
#X obj 125 225;
#X msg 125 247;
#X floatatom 71 196 5 0 0 0 - - -, f 5;
#X obj 89 125 env~ 8192 4096;
#X connect 0 0 5 0;
#X connect 0 0 9 0;
#X connect 3 0 4 0;
#X connect 3 0 8 0;
#X connect 6 0 7 0;
#X connect 8 0 2 0;
#X connect 9 0 3 0;
